<svg xmlns="http://www.w3.org/2000/svg" viewBox="0 0 200 200"><title>community-feature-icon</title><path d="M19.1,139.63A103.53,103.53,0,0,1,16.66,117c0-46,28.49-93.25,64.85-107.51a59.41,59.41,0,0,1,29.4-4l-.17,1.41A57.94,57.94,0,0,0,82,10.79C46.17,24.85,18.09,71.49,18.09,117a102.61,102.61,0,0,0,2.4,22.35Z" fill="#b08ee6"/><path d="M74.09,190.85c-19.11,0-35.78-10.16-46.5-28.65l1.23-.72c11.82,20.4,31,30.39,52.71,27.43,42.44-5.81,78.3-56.18,78.3-110,0-24.8-7.56-45.61-21.29-58.6l1-1c14,13.26,21.74,34.44,21.74,59.64,0,54.48-36.43,105.49-79.54,111.39A55.21,55.21,0,0,1,74.09,190.85Z" fill="#b08ee6"/><path d="M105,120.53l71.08,21.37c3.85,1.14,7.12-2.28,7.12-7.84V89.47c0-5.41-3.13-11.25-7.12-12.82L105,47c-5-2.14-9.26,1.28-9.26,7.69v51.57C95.73,112.55,99.86,119,105,120.53Z" fill="#4d1e9a"/><path d="M177.53,142.83a6,6,0,0,1-1.66-.25l-71.09-21.37c-5.39-1.65-9.77-8.34-9.77-14.93V54.71c0-3.59,1.3-6.51,3.57-8a6.89,6.89,0,0,1,6.69-.34L176.35,76c4.16,1.64,7.56,7.69,7.56,13.48v44.59c0,3.38-1.15,6.18-3.16,7.68A5.32,5.32,0,0,1,177.53,142.83Zm-72.34-23,71.09,21.36a4,4,0,0,0,3.62-.61c1.62-1.21,2.58-3.65,2.58-6.54V89.47c0-5.17-3-10.74-6.67-12.16l-71.1-29.63a5.53,5.53,0,0,0-5.35.22c-1.86,1.22-2.92,3.71-2.92,6.81v51.57c0,6,3.93,12.09,8.75,13.57Z" fill="#4d1e9a"/><path d="M73.65,182.92l58.83,11.26c4.7.85,8.41-3.28,8.41-9.12V153.43c0-6-3.71-11.82-8.41-13.1L73.65,123.8c-5.7-1.56-10.4,2.57-10.4,9.26v35.62C63.39,175.37,68.09,181.78,73.65,182.92Z" fill="#d69e2e"/><path d="M133.68,195a7.65,7.65,0,0,1-1.33-.12L73.5,183.62c-5.9-1.21-10.82-7.91-11-14.93V133.06a10.64,10.64,0,0,1,3.78-8.65,8.44,8.44,0,0,1,7.52-1.29l58.84,16.52c5,1.37,8.93,7.43,8.93,13.79v31.63a10.63,10.63,0,0,1-3.4,8.29A7,7,0,0,1,133.68,195Zm-59.9-12.78,58.83,11.26a5.58,5.58,0,0,0,4.68-1.22,9.27,9.27,0,0,0,2.88-7.2V153.43c0-5.66-3.53-11.23-7.88-12.41L73.45,124.49a7,7,0,0,0-6.27,1.06c-2.05,1.55-3.22,4.29-3.22,7.51v35.62C64.09,175.06,68.5,181.14,73.78,182.22Z" fill="#d69e2e"/><path d="M20.37,102l51.42,13.82c5.42,1.42,9.69-2.57,9.69-9V73.66c0-6.41-4.42-13.11-9.69-15.1L20.37,40.32C14,38,8.69,42,8.69,49.16V86.05C8.69,93,14,100.3,20.37,102Z" fill="#bfb8cc"/><path d="M125.36,50.44l-13-5.41c-5-2.14-9.26,1.28-9.26,7.69v51.57c0,6.27,4.14,12.68,9.26,14.24l71.09,21.37c3.85,1.14,7.12-2.28,7.12-7.83V87.48c0-5.42-3.13-11.26-7.12-12.82l-48-19.95" fill="#976ae2"/><path d="M184.93,140.83a5.6,5.6,0,0,1-1.65-.25l-71.09-21.37c-5.39-1.64-9.77-8.34-9.77-14.92V52.72c0-3.59,1.3-6.51,3.57-8a6.92,6.92,0,0,1,6.69-.34l12.95,5.41-.55,1.32-13-5.42a5.53,5.53,0,0,0-5.35.22c-1.86,1.23-2.92,3.71-2.92,6.82v51.57c0,6,3.92,12.09,8.75,13.56l71.08,21.37a4,4,0,0,0,3.62-.61c1.62-1.21,2.59-3.66,2.59-6.54V87.48c0-5.17-3.06-10.74-6.67-12.16l-48-19.95.55-1.32,48,20c4.17,1.63,7.56,7.68,7.56,13.48v44.59c0,3.38-1.15,6.18-3.15,7.68A5.39,5.39,0,0,1,184.93,140.83Z" fill="#1f0d40"/><path d="M119.23,133.78l-38-10.55c-5.7-1.56-10.4,2.57-10.4,9.26v35.62c0,6.69,4.7,13.1,10.4,14.1L140,193.46c4.7.86,8.41-3.27,8.41-9.11V152.72c0-6-3.71-11.82-8.41-13.1l-7.26-2" fill="#ecc94b"/><path d="M141.23,194.29a7.65,7.65,0,0,1-1.33-.12L81.06,182.91c-6-1.06-11-7.7-11-14.8V132.49a10.64,10.64,0,0,1,3.78-8.65,8.44,8.44,0,0,1,7.52-1.29l38,10.54-.38,1.37L81,123.92A7,7,0,0,0,74.73,125c-2,1.55-3.22,4.29-3.22,7.51v35.62c0,6.33,4.49,12.47,9.81,13.4l58.84,11.26a5.55,5.55,0,0,0,4.68-1.23,9.23,9.23,0,0,0,2.88-7.19V152.72c0-5.66-3.53-11.23-7.88-12.42l-7.26-2,.37-1.37,7.27,2c5,1.36,8.93,7.42,8.93,13.79v31.63a10.66,10.66,0,0,1-3.4,8.29A7,7,0,0,1,141.23,194.29Z" fill="#1f0d40"/><path d="M60,49.58l-32-11.39C21.51,35.91,16.24,39.9,16.24,47v36.9C16.24,91,21.51,98.3,27.92,100l51.42,13.82c5.42,1.43,9.69-2.56,9.69-9V71.66c0-6.41-4.42-13.1-9.69-15.1l-8.4-3" fill="#f1edf7"/><path d="M81.49,114.83a9.05,9.05,0,0,1-2.33-.31L27.73,100.7C21,98.91,15.52,91.38,15.52,83.92V47c0-3.74,1.44-6.9,3.94-8.67a9.32,9.32,0,0,1,8.7-.83L60.21,48.91l-.48,1.34-32-11.39a7.92,7.92,0,0,0-7.4.66C18.13,41,17,43.7,17,47v36.9c0,6.85,5,13.77,11.15,15.41l51.43,13.81a6.43,6.43,0,0,0,5.76-1c1.92-1.49,3-4.14,3-7.28V71.66c0-6-4.14-12.5-9.23-14.43l-8.39-3,.48-1.34,8.4,3c5.61,2.12,10.16,9.2,10.16,15.77v33.2c0,3.59-1.3,6.65-3.58,8.41A7.57,7.57,0,0,1,81.49,114.83Z" fill="#1f0d40"/><path d="M143.47,105.25a7.38,7.38,0,0,1-2.4-.43c-6.38-2.23-11.58-13.14-11.58-24.32,0-7,2.09-12.72,5.6-15.15a6.75,6.75,0,0,1,6.47-.76c6.35,2.72,11.29,13.39,11.29,24.31,0,7-2.08,12.64-5.56,15.09A6.5,6.5,0,0,1,143.47,105.25ZM139,65.51a5.28,5.28,0,0,0-3.06,1c-3.12,2.17-5,7.39-5,14,0,10.44,4.87,21,10.64,23a5.12,5.12,0,0,0,4.92-.64c3.06-2.15,5-7.49,5-13.93,0-10.22-4.67-20.53-10.4-23A6,6,0,0,0,139,65.51Z" fill="#4d1e9a"/><path d="M162.82,133.69c-1-13.17-9.64-25.4-20.14-28.43a14.53,14.53,0,0,0-12.34,1.67c-4.25,2.8-7,7.76-7.84,14l-1.41-.18c.86-6.63,3.86-12,8.46-15a16.19,16.19,0,0,1,13.52-1.85c11,3.19,20.14,16,21.18,29.69Z" fill="#4d1e9a"/><path d="M149.17,106.67a7.12,7.12,0,0,1-2.4-.43c-6.38-2.23-11.58-13.14-11.58-24.32,0-7,2.09-12.71,5.6-15.15a6.77,6.77,0,0,1,6.47-.76c6.34,2.72,11.29,13.39,11.29,24.32,0,7-2.08,12.64-5.56,15.09A6.55,6.55,0,0,1,149.17,106.67Zm-4.51-39.73a5.27,5.27,0,0,0-3.06,1c-3.12,2.17-5,7.4-5,14,0,10.44,4.87,21,10.64,23a5.12,5.12,0,0,0,4.92-.65c3.06-2.15,5-7.49,5-13.92,0-10.23-4.66-20.54-10.39-23A6,6,0,0,0,144.66,66.94Z" fill="#e8e4ef"/><path d="M168.52,135.11c-1-13.17-9.65-25.39-20.14-28.43A14.56,14.56,0,0,0,136,108.35c-4.25,2.8-7,7.77-7.84,14l-1.41-.18c.86-6.63,3.86-12,8.46-15a16.18,16.18,0,0,1,13.52-1.85c11,3.2,20.14,16,21.17,29.7Z" fill="#e8e4ef"/><path d="M52.72,87.54a6.09,6.09,0,0,1-2.11-.39c-5.46-2-9.73-11-9.73-20.47,0-6.1,1.79-10.9,4.79-12.85a5.52,5.52,0,0,1,5.47-.34c5.34,2.08,9.54,11,9.54,20.31,0,5.89-1.77,10.63-4.74,12.69A5.55,5.55,0,0,1,52.72,87.54ZM48.63,54.35a4,4,0,0,0-2.18.67c-2.56,1.66-4.14,6.13-4.14,11.66,0,8.8,3.94,17.38,8.78,19.13a4.17,4.17,0,0,0,4-.49c2.55-1.77,4.13-6.18,4.13-11.52,0-8.61-3.89-17.14-8.67-19A4.7,4.7,0,0,0,48.63,54.35Z" fill="#bfb8cc"/><path d="M68.66,111c-.84-11-8-21.15-16.73-23.73a11.85,11.85,0,0,0-10.14,1.31c-3.52,2.3-5.81,6.43-6.47,11.63l-1.41-.18C34.62,94.45,37.14,90,41,87.43a13.27,13.27,0,0,1,11.33-1.49c9.24,2.74,16.87,13.48,17.75,25Z" fill="#bfb8cc"/><path d="M57.41,88.68a6.08,6.08,0,0,1-2.1-.39c-5.45-2-9.73-11-9.73-20.47,0-6,1.8-10.78,4.82-12.76a5.48,5.48,0,0,1,5.43-.43c5.35,2.08,9.55,11,9.55,20.31,0,5.88-1.77,10.63-4.74,12.69A5.55,5.55,0,0,1,57.41,88.68Zm-4-33.14a4.06,4.06,0,0,0-2.26.7C48.61,57.94,47,62.38,47,67.82,47,76.62,51,85.2,55.8,87a4.15,4.15,0,0,0,4-.49C62.38,84.69,64,80.28,64,74.94c0-8.62-3.89-17.14-8.67-19A4.53,4.53,0,0,0,53.44,55.54Z" fill="#fff"/><path d="M73.51,112.18c-.85-11-8-21.15-16.74-23.73a11.88,11.88,0,0,0-10.14,1.31c-3.51,2.3-5.81,6.43-6.47,11.62l-1.41-.17c.71-5.62,3.23-10.11,7.1-12.64a13.26,13.26,0,0,1,11.33-1.49c9.23,2.74,16.86,13.48,17.75,25Z" fill="#fff"/><path d="M109.29,171.86a5.41,5.41,0,0,1-1.51-.22c-5-1.35-9.45-8.95-10.2-17.29h0c-.47-5.27.74-9.62,3.24-11.65a5.15,5.15,0,0,1,4.94-.92c4.8,1.5,9.15,9.09,9.91,17.29.48,5.2-.71,9.54-3.18,11.6A4.93,4.93,0,0,1,109.29,171.86ZM99,154.23c.68,7.65,4.8,14.85,9.17,16a3.56,3.56,0,0,0,3.41-.7c2.08-1.73,3.1-5.7,2.67-10.37-.7-7.54-4.69-14.74-8.91-16a3.72,3.72,0,0,0-3.63.65C99.62,145.51,98.58,149.5,99,154.23Z" fill="#d69e2e"/><path d="M125.23,191.16c-1.55-9.53-8.59-17.86-16.39-19.36a10.42,10.42,0,0,0-8.7,1.89c-2.9,2.27-4.62,6.07-4.84,10.69l-1.42-.07c.24-5,2.15-9.21,5.38-11.74a11.79,11.79,0,0,1,9.85-2.17c8.36,1.61,15.89,10.44,17.52,20.53Z" fill="#d69e2e"/><path d="M113.57,172.57a5.36,5.36,0,0,1-1.51-.22c-5-1.35-9.46-8.95-10.21-17.28h0c-.47-5.27.74-9.63,3.24-11.66a5.14,5.14,0,0,1,5-.91c4.79,1.5,9.14,9.09,9.9,17.28.48,5.2-.7,9.54-3.17,11.6A4.93,4.93,0,0,1,113.57,172.57Zm-10.3-17.63c.69,7.65,4.8,14.85,9.17,16a3.52,3.52,0,0,0,3.41-.7c2.08-1.73,3.11-5.7,2.67-10.37-.69-7.53-4.69-14.74-8.9-16a3.74,3.74,0,0,0-3.63.65C103.89,146.22,102.85,150.21,103.27,154.94Z" fill="#e8e4ef"/><path d="M129.5,191.87c-1.54-9.53-8.59-17.85-16.39-19.36a10.43,10.43,0,0,0-8.7,1.89c-2.9,2.27-4.62,6.07-4.84,10.69L98.15,185c.24-5.05,2.15-9.22,5.38-11.75a11.84,11.84,0,0,1,9.86-2.17c8.35,1.61,15.88,10.44,17.51,20.53Z" fill="#e8e4ef"/></svg>