<svg xmlns="http://www.w3.org/2000/svg" viewBox="0 0 200 200"><title>feedback-feature-icon</title><path d="M21.63,144.93a101.57,101.57,0,0,1-3.08-25.39c0-47.07,29.13-95.37,66.32-110,21.84-8.57,43.36-5,59,9.76l-1,1.06C127.66,6,106.7,2.59,85.4,10.94,48.73,25.32,20,73,20,119.54a100,100,0,0,0,3,25Z" fill="#b08ee6"/><path d="M77.12,195a50.91,50.91,0,0,1-34.87-13.72l1-1.08A49.79,49.79,0,0,0,84.89,193c43.42-6,80.1-57.47,80.1-112.5A109.61,109.61,0,0,0,162.53,57l1.42-.31a111.22,111.22,0,0,1,2.49,23.76c0,55.72-37.25,107.9-81.35,113.94A57,57,0,0,1,77.12,195Z" fill="#b08ee6"/><path d="M153.77,76.26l-14.57-5.1,7.43-15.73L116.9,63.3,43,37.21C37.49,35.32,33,39,33,45.37V94.19C33,100.6,37.49,107,43,108.32l110.74,27.1c3.79.88,6.7-2.62,6.7-7.72V88.36C160.61,82.82,157.56,77.58,153.77,76.26Z" fill="#d69e2e"/><path d="M154.92,136.29a5.54,5.54,0,0,1-1.32-.16L42.85,109c-5.84-1.39-10.61-8-10.61-14.84V45.37c0-3.48,1.31-6.4,3.58-8a8,8,0,0,1,7.44-.82l73.67,26,31-8.21L140.2,70.74,154,75.58c4.18,1.45,7.34,7.07,7.19,12.8V127.7c0,3.21-1.08,5.91-3,7.41A5.24,5.24,0,0,1,154.92,136.29ZM40.17,37.44a6,6,0,0,0-3.51,1.09c-1.88,1.35-3,3.84-3,6.84V94.19c0,6,4.35,12.2,9.5,13.42l110.74,27.11a3.89,3.89,0,0,0,3.38-.75c1.52-1.2,2.42-3.55,2.42-6.27V88.36c.13-5.07-2.65-10.18-6.21-11.41h0l-15.34-5.36,7.11-15.06-28.43,7.53-.21-.08L42.79,37.9A8.32,8.32,0,0,0,40.17,37.44Z" fill="#d69e2e"/><path d="M164.26,116.63,55.12,91c-5.39-1.31-9.91,2.92-9.91,9.33v20.54L28.6,123.47l16.61,19.68c0,6.41,4.52,12.24,9.91,13l109.14,14.72c3.64.44,6.7-3.35,6.7-8.45V127.7C171,122.45,168.05,117.5,164.26,116.63Z" fill="#4d1e9a"/><path d="M164.82,171.59a4.73,4.73,0,0,1-.65,0L55,156.84c-5.73-.78-10.41-6.77-10.53-13.42L27.21,123l17.27-2.73V100.31a10.7,10.7,0,0,1,3.73-8.58,8.16,8.16,0,0,1,7.08-1.46l109.13,25.65c4.08.94,7.27,6.11,7.27,11.78v34.68a10.3,10.3,0,0,1-3,7.69A5.8,5.8,0,0,1,164.82,171.59ZM30,124l16,18.89v.27c0,5.95,4.25,11.56,9.28,12.24l109.14,14.72A4.24,4.24,0,0,0,167.7,169a8.89,8.89,0,0,0,2.53-6.6V127.7c0-4.93-2.75-9.58-6.14-10.36h0L55,91.69a6.68,6.68,0,0,0-5.84,1.19,9.27,9.27,0,0,0-3.17,7.43v21.16Z" fill="#4d1e9a"/><path d="M65.47,43.19l-14.14-5c-5.53-1.89-10,1.75-10,8.16V95.21c0,6.41,4.52,12.82,10,14.13l110.74,27.1c3.79.88,6.7-2.62,6.7-7.72V89.38c0-5.25-3.06-10.49-6.7-11.8l-14.57-5.1,7.43-15.89-29.72,7.87-45.32-16" fill="#ecc94b"/><path d="M163.23,137.31a5.54,5.54,0,0,1-1.32-.16L51.16,110.05c-5.85-1.39-10.61-8-10.61-14.84V46.39c0-3.47,1.3-6.4,3.57-8a8.06,8.06,0,0,1,7.45-.83l14.14,5-.48,1.38-14.14-5a6.6,6.6,0,0,0-6.12.63c-1.88,1.35-3,3.84-3,6.84V95.21c0,6.05,4.34,12.2,9.49,13.42l110.75,27.11a3.9,3.9,0,0,0,3.38-.75c1.51-1.2,2.42-3.55,2.42-6.27V89.38c0-4.9-2.79-9.88-6.22-11.12L146.5,72.9l7.11-15.2-28.43,7.52-.22-.07-45.31-16,.48-1.37,45.11,16,31-8.21L148.5,72.05l13.81,4.84c4,1.43,7.19,7,7.19,12.49v39.34c0,3.21-1.08,5.91-3,7.41A5.24,5.24,0,0,1,163.23,137.31Z" fill="#1f0d40"/><path d="M155.52,171l18.5,2.47c3.64.44,6.7-3.35,6.7-8.45V130.32c0-5.1-3.06-10-6.7-10.93L64.88,93.75c-5.39-1.31-9.9,2.91-9.9,9.33v20.54l-16.62,2.62L55,145.91c0,6.42,4.51,12.24,9.9,13l75.34,10.2" fill="#976ae2"/><path d="M174.58,174.21c-.22,0-.43,0-.65,0l-18.51-2.48.19-1.45,18.51,2.48a4.22,4.22,0,0,0,3.34-1.13A8.85,8.85,0,0,0,180,165V130.32c0-4.74-2.81-9.42-6.14-10.22L64.72,94.46a6.69,6.69,0,0,0-5.85,1.19,9.27,9.27,0,0,0-3.17,7.43v21.16l-15.94,2.52L55.7,145.65v.26c0,6,4.25,11.57,9.28,12.25l75.33,10.2-.19,1.44L64.79,159.6c-5.74-.77-10.42-6.76-10.54-13.42L37,125.73,54.25,123V103.08A10.73,10.73,0,0,1,58,94.5,8.14,8.14,0,0,1,65.06,93l109.13,25.65c4,1,7.26,6.18,7.26,11.63V165a10.32,10.32,0,0,1-3,7.69A5.78,5.78,0,0,1,174.58,174.21Z" fill="#1f0d40"/><rect x="94.1" y="34.55" width="1.46" height="71.49" transform="translate(-0.2 140.31) rotate(-72.93)" fill="#fbfafc"/><rect x="77.78" y="58.21" width="1.46" height="35.81" transform="translate(-17.27 128.88) rotate(-72.97)" fill="#fbfafc"/><rect x="127.54" y="96.35" width="1.46" height="71.44" transform="translate(-27.19 230.71) rotate(-78.23)" fill="#fbfafc"/><rect x="111.8" y="121.64" width="1.46" height="35.72" transform="translate(-46.99 221.22) rotate(-78.23)" fill="#fbfafc"/></svg>