<svg xmlns="http://www.w3.org/2000/svg" viewBox="0 0 200 200"><title>tasks-feature-icon</title><path d="M29,144.54a105.68,105.68,0,0,1-2.93-25.07c0-47,29.12-95.33,66.29-109.91,26-10.27,51.68-2.92,67.13,19.2l-1.2.83c-15-21.53-40.1-28.68-65.4-18.67C56.26,25.3,27.55,73,27.55,119.47a104,104,0,0,0,2.89,24.73Z" fill="#b08ee6"/><path d="M84.88,195c-17.41,0-33.13-8.33-43.95-23.55l1.19-.85c12.07,17,30.4,25.16,50.28,22.42,43.4-5.94,80-57.43,80-112.44a123.74,123.74,0,0,0-1-15.06l1.45-.17a124.38,124.38,0,0,1,1,15.23c0,55.69-37.24,107.85-81.31,113.88A56.31,56.31,0,0,1,84.88,195Z" fill="#b08ee6"/><path d="M129.64,70.68,50.7,37.76c-5-2-9,.88-9,6.56V64.56c0,5.68,4.08,11.65,9,13.4l104.42,36.12c3.21,1.16,5.83-1.6,5.83-6.12v-16c0-4.51-2.62-9.32-5.83-10.63l-13.39-5.68" fill="#4d1e9a"/><path d="M156.56,115.07a4.88,4.88,0,0,1-1.69-.31L50.46,78.65c-5.25-1.85-9.52-8.17-9.52-14.09V44.32c0-3.09,1.12-5.53,3.14-6.89a7.19,7.19,0,0,1,6.9-.34L129.92,70l-.56,1.34L50.42,38.44a5.78,5.78,0,0,0-5.53.2c-1.61,1.08-2.49,3.09-2.49,5.68V64.56c0,5.35,3.83,11,8.54,12.71l104.42,36.12a3,3,0,0,0,2.83-.29c1.27-.89,2-2.81,2-5.14v-16c0-4.2-2.46-8.76-5.37-10L141.44,76.3,142,75l13.4,5.68c3.45,1.41,6.27,6.48,6.27,11.3v16c0,2.84-1,5.15-2.65,6.33A4.26,4.26,0,0,1,156.56,115.07Z" fill="#4d1e9a"/><path d="M135.9,141.6l16.31,4.52c3.21.87,5.83-2,5.83-6.55V127.48c0-4.52-2.62-9-5.83-10.2L47.79,82.18c-4.95-1.6-9,1.61-9,7.29v15.14c0,5.68,4.08,11.36,9,12.82l74.27,20.39" fill="#bfb8cc"/><path d="M85.51,162.72,152.07,176c3.2.59,5.82-2.47,5.82-7v-9.9c0-4.51-2.62-8.88-5.82-9.76L47.64,122.53c-5-1.31-9,2.33-9,8v12.52c0,5.68,4.08,11.07,9,12.09l22,4.37" fill="#d69e2e"/><path d="M152.83,176.77a4.56,4.56,0,0,1-.9-.08L85.37,163.44l.28-1.43,66.56,13.25a3.36,3.36,0,0,0,2.85-.78,7.13,7.13,0,0,0,2.1-5.5v-9.9c0-4.13-2.42-8.27-5.29-9.05L47.46,123.23a6,6,0,0,0-5.38,1,7.82,7.82,0,0,0-2.74,6.35v12.52c0,5.31,3.79,10.42,8.45,11.38l22,4.36-.29,1.43-22-4.37c-5.3-1.09-9.61-6.83-9.61-12.8V130.54a9.28,9.28,0,0,1,3.3-7.51,7.52,7.52,0,0,1,6.64-1.21l104.42,26.8c3.51,1,6.37,5.65,6.37,10.46V169A8.51,8.51,0,0,1,156,175.6,4.93,4.93,0,0,1,152.83,176.77Z" fill="#d69e2e"/><path d="M133.28,68.2,54.34,35.29c-5-2-9,.87-9,6.55v20.1c0,5.68,4.08,11.65,9,13.4l104.42,36.12c3.21,1.16,5.83-1.6,5.83-6.12v-16c0-4.51-2.62-9.32-5.83-10.63L145.37,73" fill="#976ae2"/><path d="M160.2,112.45a4.79,4.79,0,0,1-1.68-.31L54.1,76c-5.25-1.86-9.51-8.17-9.51-14.09V41.84c0-3.08,1.11-5.53,3.13-6.88a7.19,7.19,0,0,1,6.9-.34l78.94,32.91L133,68.87,54.06,36a5.78,5.78,0,0,0-5.53.21C46.93,37.24,46,39.26,46,41.84v20.1c0,5.35,3.83,11,8.54,12.71L159,110.77a3,3,0,0,0,2.83-.29c1.27-.89,2-2.81,2-5.14v-16c0-4.21-2.46-8.77-5.37-10l-13.41-5.68.57-1.34L159.05,78c3.45,1.41,6.27,6.48,6.27,11.3v16c0,2.84-1,5.15-2.65,6.33A4.26,4.26,0,0,1,160.2,112.45Z" fill="#1f0d40"/><path d="M142.45,140.58l16.31,4.52c3.21.87,5.83-2,5.83-6.55V126.46c0-4.52-2.62-9-5.83-10.2L54.34,81.16c-5-1.6-9,1.61-9,7.29v15.14c0,5.68,4.08,11.36,9,12.82l74.28,20.39" fill="#f1edf7"/><path d="M159.88,146a5,5,0,0,1-1.31-.18l-16.31-4.51.39-1.41L159,144.4a3.14,3.14,0,0,0,2.83-.53c1.3-1,2.07-3,2.07-5.32V126.46c0-4.18-2.4-8.44-5.34-9.51L54.11,81.86a6,6,0,0,0-5.49.64,7.07,7.07,0,0,0-2.58,6v15.14c0,5.3,3.82,10.74,8.51,12.12l74.26,20.39-.39,1.4L54.15,117.11c-5.28-1.55-9.56-7.61-9.56-13.52V88.45c0-3.11,1.12-5.64,3.17-7.13a7.44,7.44,0,0,1,6.81-.85L159,115.57c3.55,1.29,6.32,6.07,6.32,10.89v12.09c0,2.83-1,5.19-2.65,6.48A4.55,4.55,0,0,1,159.88,146Z" fill="#1f0d40"/><path d="M92.21,163.16l66.55,13.25c3.21.58,5.83-2.47,5.83-7v-9.9c0-4.52-2.62-8.89-5.83-9.76L54.34,123c-5-1.31-9,2.33-9,8V143.5c0,5.68,4.08,11.07,9,12.09l22,4.36" fill="#ecc94b"/><path d="M159.53,177.21a5.47,5.47,0,0,1-.9-.08L92.07,163.87l.28-1.43,66.56,13.26a3.37,3.37,0,0,0,2.85-.78,7.15,7.15,0,0,0,2.1-5.5v-9.9c0-4.13-2.42-8.28-5.29-9.06L54.16,123.67a6.06,6.06,0,0,0-5.38,1A7.85,7.85,0,0,0,46,131V143.5c0,5.31,3.79,10.41,8.45,11.37l22,4.37-.29,1.43-22-4.37c-5.3-1.09-9.61-6.83-9.61-12.8V131a9.27,9.27,0,0,1,3.3-7.5,7.52,7.52,0,0,1,6.64-1.21l104.41,26.79c3.52,1,6.38,5.66,6.38,10.47v9.9A8.51,8.51,0,0,1,162.7,176,4.93,4.93,0,0,1,159.53,177.21Z" fill="#1f0d40"/><path d="M62.06,72.26a4.78,4.78,0,0,1-1.71-.32c-4.43-1.58-7.9-8.79-7.9-16.41,0-4.73,1.44-8.58,3.85-10.28a4.8,4.8,0,0,1,4.55-.6c4.3,1.91,7.62,9.11,7.62,16.42,0,4.82-1.42,8.69-3.81,10.35A4.47,4.47,0,0,1,62.06,72.26Zm-3-26.47a3.34,3.34,0,0,0-2,.65c-2,1.41-3.23,4.89-3.23,9.09,0,6.93,3.11,13.68,6.94,15a3.1,3.1,0,0,0,3-.36c2-1.36,3.18-4.87,3.18-9.15,0-6.67-3-13.42-6.7-15.07A3.7,3.7,0,0,0,59.11,45.79Z" fill="#4d1e9a"/><path d="M66,72.26a4.78,4.78,0,0,1-1.71-.32c-4.42-1.58-7.9-8.79-7.9-16.41,0-4.73,1.44-8.58,3.86-10.28a4.81,4.81,0,0,1,4.54-.6c4.3,1.91,7.62,9.11,7.62,16.42,0,4.82-1.42,8.69-3.8,10.35A4.53,4.53,0,0,1,66,72.26ZM63,45.79a3.34,3.34,0,0,0-2,.65c-2,1.41-3.24,4.89-3.24,9.09,0,6.93,3.11,13.68,6.94,15a3.1,3.1,0,0,0,3-.36c2-1.36,3.18-4.87,3.18-9.15,0-6.67-3-13.42-6.7-15.07A3.66,3.66,0,0,0,63,45.79Z" fill="#e8e4ef"/><path d="M62.06,155.42a4.78,4.78,0,0,1-1.71-.32c-4.43-1.58-7.9-8.79-7.9-16.41,0-4.74,1.44-8.58,3.85-10.28a4.82,4.82,0,0,1,4.55-.6c4.3,1.91,7.62,9.11,7.62,16.42,0,4.82-1.42,8.69-3.81,10.35A4.47,4.47,0,0,1,62.06,155.42Zm-3-26.47a3.34,3.34,0,0,0-2,.65c-2,1.41-3.23,4.89-3.23,9.09,0,6.93,3.11,13.68,6.94,15a3,3,0,0,0,3-.35c2-1.36,3.18-4.87,3.18-9.15,0-6.67-3-13.42-6.7-15.07A3.7,3.7,0,0,0,59.11,129Z" fill="#d69e2e"/><path d="M66,155.42a4.78,4.78,0,0,1-1.71-.32c-4.42-1.58-7.9-8.79-7.9-16.41,0-4.74,1.44-8.58,3.86-10.28a4.78,4.78,0,0,1,4.54-.6c4.3,1.91,7.62,9.11,7.62,16.42,0,4.82-1.42,8.69-3.8,10.35A4.53,4.53,0,0,1,66,155.42ZM63,129a3.31,3.31,0,0,0-2,.65c-2,1.41-3.24,4.89-3.24,9.09,0,6.93,3.11,13.68,6.94,15a3.07,3.07,0,0,0,3-.35c2-1.36,3.18-4.87,3.18-9.15,0-6.67-3-13.42-6.7-15.07A3.66,3.66,0,0,0,63,129Z" fill="#e8e4ef"/><rect x="115.95" y="37.29" width="1.46" height="71.73" transform="translate(6.66 155.98) rotate(-69.06)" fill="#fbfafc"/><rect x="99.2" y="60.03" width="1.46" height="35.86" transform="translate(-8.59 143.43) rotate(-69.06)" fill="#fbfafc"/><rect x="116.38" y="75.77" width="1.46" height="71.8" transform="translate(-26.69 185.9) rotate(-70.94)" fill="#dfdae8"/><rect x="99.42" y="98.96" width="1.46" height="35.93" transform="translate(-43.17 173.12) rotate(-70.83)" fill="#dfdae8"/><rect x="117.19" y="112.94" width="1.46" height="71.74" transform="translate(-55.63 225.84) rotate(-75.54)" fill="#fbfafc"/><rect x="99.85" y="137.55" width="1.46" height="35.92" transform="translate(-74.97 214.51) rotate(-75.68)" fill="#fbfafc"/><path d="M62.06,113.92a5,5,0,0,1-1.71-.32c-4.43-1.59-7.9-8.79-7.9-16.41,0-4.86,1.45-8.75,3.89-10.41a4.68,4.68,0,0,1,4.53-.47c4.28,1.9,7.6,9.1,7.6,16.41,0,4.82-1.42,8.69-3.81,10.35A4.48,4.48,0,0,1,62.06,113.92ZM59,87.39a3.23,3.23,0,0,0-1.83.59c-2,1.37-3.25,4.9-3.25,9.21,0,6.92,3.11,13.67,6.94,15a3.07,3.07,0,0,0,3-.35c2-1.37,3.18-4.88,3.18-9.16,0-6.66-3-13.42-6.7-15.06A3.54,3.54,0,0,0,59,87.39Z" fill="#bfb8cc"/><path d="M66,113.92a5,5,0,0,1-1.71-.32c-4.42-1.59-7.9-8.79-7.9-16.41,0-4.86,1.46-8.75,3.89-10.41a4.71,4.71,0,0,1,4.53-.47c4.28,1.9,7.6,9.1,7.6,16.41,0,4.82-1.42,8.69-3.8,10.35A4.54,4.54,0,0,1,66,113.92ZM62.93,87.39a3.24,3.24,0,0,0-1.84.59c-2,1.37-3.25,4.9-3.25,9.21,0,6.92,3.11,13.67,6.94,15a3.07,3.07,0,0,0,3-.35c2-1.37,3.18-4.88,3.18-9.16,0-6.66-3-13.42-6.7-15.06A3.53,3.53,0,0,0,62.93,87.39Z" fill="#fbfafc"/></svg>