<svg xmlns="http://www.w3.org/2000/svg" viewBox="0 0 200 200"><title>whitelabel-feature-icon</title><path d="M26.44,158.65a97.74,97.74,0,0,1-7.78-39.18c0-47,29.12-95.32,66.29-109.9,19-7.44,37.77-5.75,52.82,4.74l-.83,1.19C122.3,5.3,104,3.67,85.48,10.92,48.83,25.3,20.12,73,20.12,119.47a96.23,96.23,0,0,0,7.66,38.59Z" fill="#b08ee6"/><path d="M77.6,195a52.07,52.07,0,0,1-38.5-16.92l1.06-1a50.8,50.8,0,0,0,45,15.94c43.39-5.94,80-57.43,80-112.43,0-16.12-3.06-30.42-9.1-42.49l1.31-.66c6.14,12.28,9.25,26.8,9.25,43.15,0,55.69-37.24,107.84-81.31,113.88A57.9,57.9,0,0,1,77.6,195Z" fill="#b08ee6"/><path d="M50.27,156.17,166.34,183.7c3.93.87,7.13-2.77,7.13-8.3V95.88c0-5.54-3.2-11.22-7.13-13L50.27,34.86C44.44,32.53,39.63,36,39.63,42.72v98.45C39.63,148.16,44.59,154.86,50.27,156.17Z" fill="#4d1e9a"/><path d="M167.48,184.55a6.39,6.39,0,0,1-1.3-.14L50.1,156.88c-6.17-1.43-11.19-8.47-11.19-15.71V42.72c0-3.55,1.33-6.49,3.65-8.06a8.35,8.35,0,0,1,8-.48L166.62,82.24c4.26,1.9,7.58,7.88,7.58,13.64V175.4c0,3.4-1.15,6.27-3.15,7.88A5.65,5.65,0,0,1,167.48,184.55ZM46.77,34.86a6,6,0,0,0-3.39,1c-2,1.32-3,3.75-3,6.86v98.45c0,6.49,4.61,13,10.07,14.29h0L166.5,183a4.2,4.2,0,0,0,3.64-.85c1.63-1.31,2.61-3.83,2.61-6.74V95.88c0-5.14-3-10.65-6.71-12.3l-116-48A8.64,8.64,0,0,0,46.77,34.86Z" fill="#4d1e9a"/><path d="M141.29,68.5,57.4,33.84C51.58,31.51,46.77,35,46.77,41.7v98.45c0,6.85,4.81,13.55,10.63,14.86l116.07,27.52c3.94.88,7.14-2.77,7.14-8.3V94.71c0-5.53-3.2-11.21-7.14-13L157.74,75.2" fill="#976ae2"/><path d="M174.61,183.39a5.68,5.68,0,0,1-1.29-.15L57.23,155.72C51.07,154.33,46,147.34,46,140.15V41.7c0-3.55,1.33-6.49,3.66-8.06a8.33,8.33,0,0,1,8-.48l83.9,34.67L141,69.17,57.12,34.51a6.94,6.94,0,0,0-6.6.33c-2,1.32-3,3.76-3,6.86v98.45c0,6.44,4.61,12.92,10.06,14.15l116.08,27.52a4.17,4.17,0,0,0,3.63-.84c1.64-1.31,2.61-3.83,2.61-6.75V94.71c0-5.13-3-10.65-6.7-12.29l-15.72-6.55.57-1.34,15.72,6.55C178,83,181.34,89,181.34,94.71v79.52c0,3.4-1.15,6.28-3.15,7.88A5.69,5.69,0,0,1,174.61,183.39Z" fill="#1f0d40"/><path d="M57,60.49c0,8.3,3.79,16.31,8.45,17.91s8.16-3.49,8.16-11.5-3.64-16-8.16-17.92S57,52.19,57,60.49Z" fill="#4d1e9a"/><path d="M67.05,79.43a5.7,5.7,0,0,1-1.88-.34c-5-1.72-8.93-9.89-8.93-18.6,0-5.5,1.63-9.88,4.36-11.72a5.23,5.23,0,0,1,5.09-.46c4.83,2,8.6,10.19,8.6,18.59,0,5.35-1.58,9.66-4.24,11.54A5.11,5.11,0,0,1,67.05,79.43ZM63.5,49.32a3.71,3.71,0,0,0-2.09.66c-2.29,1.54-3.72,5.57-3.72,10.51,0,8,3.57,15.72,8,17.22a3.71,3.71,0,0,0,3.56-.46c2.24-1.58,3.63-5.55,3.63-10.35,0-7.73-3.46-15.46-7.71-17.24A4.26,4.26,0,0,0,63.5,49.32Z" fill="#4d1e9a"/><path d="M61.33,60.49c0,8.3,3.79,16.31,8.45,17.91s8.16-3.49,8.16-11.5S74.3,50.88,69.78,49,61.33,52.19,61.33,60.49Z" fill="#ecc94b"/><path d="M158,117.19a4.41,4.41,0,0,1-1.4-.23L90.34,93.5c-3.69-1.45-6.58-6-6.58-10.29a6.3,6.3,0,0,1,2.43-5.4,4.9,4.9,0,0,1,4.68-.38l66.26,25.2c2.82.93,5.13,4.9,5.13,8.83,0,2.26-.75,4.1-2.07,5.05A3.66,3.66,0,0,1,158,117.19Zm-67.18-25,66.25,23.44a2.4,2.4,0,0,0,2.23-.25,4.67,4.67,0,0,0,1.46-3.87c0-3.29-1.9-6.71-4.16-7.46L90.35,78.79A3.51,3.51,0,0,0,87,79a4.92,4.92,0,0,0-1.79,4.2C85.22,86.91,87.75,90.91,90.86,92.14Z" fill="#4d1e9a"/><path d="M132.24,134.56a6.25,6.25,0,0,1-1.79-.26L92.57,122.93c-4.86-1.56-8.81-7.49-8.81-13.22v-1.89c0-3.18,1.18-5.83,3.24-7.29a6.46,6.46,0,0,1,6-.68l37.86,12.81c4.28,1.43,7.63,6.79,7.63,12.2v1.75a8.35,8.35,0,0,1-2.94,6.85A5.53,5.53,0,0,1,132.24,134.56ZM93,121.54l37.86,11.36a4.19,4.19,0,0,0,3.84-.61,6.91,6.91,0,0,0,2.35-5.68v-1.75c0-4.74-3-9.59-6.63-10.81L92.56,101.23a5.06,5.06,0,0,0-4.72.49c-1.67,1.18-2.62,3.4-2.62,6.1v1.89C85.22,114.76,88.78,120.18,93,121.54Z" fill="#4d1e9a"/><path d="M88.86,140.73l54,14c2,.58,3.64-1.17,3.64-3.79h0c0-2.62-1.6-5.24-3.64-5.83l-54-15c-2.48-.73-4.52,1.17-4.52,4.08h0C84.49,137.09,86.38,140,88.86,140.73Z" fill="#4d1e9a"/><path d="M143.66,155.55a3.65,3.65,0,0,1-1-.13l-54-14c-2.7-.79-4.87-3.9-5-7.21A5.16,5.16,0,0,1,85.48,130a4,4,0,0,1,3.58-.59l54,15c2.35.67,4.18,3.54,4.18,6.53a4.88,4.88,0,0,1-1.69,4A3.1,3.1,0,0,1,143.66,155.55ZM89.05,140l54,14a1.74,1.74,0,0,0,1.62-.26,3.49,3.49,0,0,0,1.11-2.82c0-2.3-1.42-4.64-3.11-5.13l-54-15a2.5,2.5,0,0,0-2.3.36,3.67,3.67,0,0,0-1.29,3C85.2,136.82,87,139.41,89.05,140Z" fill="#4d1e9a"/><path d="M166.2,117.19a4.32,4.32,0,0,1-1.4-.23L98.5,93.5c-3.69-1.45-6.58-6-6.58-10.29a6.32,6.32,0,0,1,2.42-5.4A4.92,4.92,0,0,1,99,77.43l66.26,25.2c2.81.93,5.12,4.9,5.12,8.83a6.08,6.08,0,0,1-2.06,5.05A3.66,3.66,0,0,1,166.2,117.19ZM99,92.14l66.25,23.44a2.41,2.41,0,0,0,2.23-.25,4.71,4.71,0,0,0,1.46-3.87c0-3.29-1.91-6.71-4.16-7.46L98.5,78.79a3.48,3.48,0,0,0-3.34.22,5,5,0,0,0-1.79,4.2C93.37,86.91,95.9,90.91,99,92.14Z" fill="#e8e4ef"/><path d="M140.4,134.56a6.2,6.2,0,0,1-1.79-.26l-37.89-11.37c-4.85-1.56-8.8-7.49-8.8-13.22v-1.89c0-3.18,1.18-5.83,3.24-7.29a6.45,6.45,0,0,1,6-.68l37.86,12.81c4.27,1.43,7.63,6.79,7.63,12.2v1.75a8.38,8.38,0,0,1-2.94,6.85A5.55,5.55,0,0,1,140.4,134.56Zm-39.24-13L139,132.9a4.21,4.21,0,0,0,3.85-.61,6.94,6.94,0,0,0,2.35-5.68v-1.75c0-4.74-3-9.59-6.64-10.81l-37.87-12.82a5,5,0,0,0-4.71.49c-1.67,1.18-2.63,3.4-2.63,6.1v1.89C93.37,114.76,96.94,120.18,101.16,121.54Z" fill="#e8e4ef"/><path d="M97.16,140.73l54,14c2,.58,3.64-1.17,3.64-3.79h0c0-2.62-1.6-5.24-3.64-5.83l-54-15c-2.48-.73-4.51,1.17-4.51,4.08h0C92.65,137.09,94.68,140,97.16,140.73Z" fill="#ecc94b"/></svg>