<svg xmlns="http://www.w3.org/2000/svg" viewBox="0 0 580 340"><title>pupilfirst-hero-illustration-1</title><ellipse cx="147.11" cy="267.98" rx="5.9" ry="17.36" transform="translate(-141.06 370.01) rotate(-80.73)" fill="#d3bff3"/><ellipse cx="147.26" cy="266.67" rx="5.9" ry="17.36" transform="translate(-139.65 369.06) rotate(-80.73)" fill="#f0eafb"/><path d="M156.94,267.65a7.6,7.6,0,0,1,5.95,3.14Z" fill="#fff"/><path d="M284.6,274.7l42,6a3.73,3.73,0,0,1,.37,7.23L206.88,324.79a3.79,3.79,0,0,1-2.06,0l-33.46-9a3.73,3.73,0,0,1-.18-7.15l111.55-33.9A3.59,3.59,0,0,1,284.6,274.7Z" fill="#b3cdfa"/><path d="M145.47,103.73C129,81.52,120,35.33,205.26,46.65s100.2,15.24,133.29,4,99-41.23,114.58,67.3S343.07,153.88,322,180.5s-66.53,62.07-129.15-9.24C157.87,131.43,159.76,122.94,145.47,103.73Z" fill="#ecf3ff"/><path d="M461.64,231.47l3.95,28.66s1.57,6-4.15,6.89-49.27,3.32-49.27,3.32l-35.43-4.16,37-3.7S421,261,421.36,257s-.47-27.66-.47-27.66Z" fill="#f0eafb"/><polygon points="463.76 247.78 421.71 245.17 420.87 229.34 461.64 231.47 463.76 247.78" fill="#d3bff3"/><path d="M523.17,233.71l-158.83-4.87a6.53,6.53,0,0,1-6.31-6.71l15.06-102.08a6.53,6.53,0,0,1,6.71-6.31L546.28,80.87a6.53,6.53,0,0,1,6.31,6.71L529.86,227.4A6.51,6.51,0,0,1,523.17,233.71Z" fill="#f0eafb"/><path d="M523.28,234.55h-.14l-158.83-4.88a7.36,7.36,0,0,1-7.12-7.56l15.07-102.18a7.33,7.33,0,0,1,7.42-7h0L546.21,80h.1a7.36,7.36,0,0,1,7.12,7.56l-22.75,140a7.13,7.13,0,0,1-2.28,5A7.33,7.33,0,0,1,523.28,234.55Zm-143.62-120a5.69,5.69,0,0,0-5.74,5.5l-15.07,102.2a5.72,5.72,0,0,0,5.51,5.76l158.83,4.87a5.71,5.71,0,0,0,5.84-5.5L551.77,87.45a5.71,5.71,0,0,0-5.42-5.74L379.86,114.58h-.2Z" fill="#b08ee6"/><path d="M532.5,234.83h-.14v-1.67a5.53,5.53,0,0,0,4.06-1.55,5.64,5.64,0,0,0,1.79-4L561,87.73A5.72,5.72,0,0,0,555.49,82V80.33a7.36,7.36,0,0,1,7.12,7.57l-22.7,139.92a7.16,7.16,0,0,1-2.3,5A7.31,7.31,0,0,1,532.5,234.83Z" fill="#b08ee6"/><path d="M413.79,274.73h-.06L377,271l.17-1.66,36.69,3.76c19.2-1,48.71-3,51.53-4.46,3.4-1.75,2.43-6,2.42-6l-3.49-30.06,1.66-.2,3.47,30c.44,1.81.35,5.9-3.3,7.77-4,2.09-47.34,4.39-52.27,4.65Z" fill="#b08ee6"/><path d="M329.32,220.92a7.68,7.68,0,0,1-7.44-7.89v-.12l21.41-109.46A7.69,7.69,0,0,1,351,96.09h0l184.7-44.42h.1a7.68,7.68,0,0,1,7.42,7.89L515.46,215.64a7.5,7.5,0,0,1-2.4,5.23,7.65,7.65,0,0,1-5.47,2.08Zm-5.92-7.78a6.14,6.14,0,0,0,6,6.27l178.28,2a6,6,0,0,0,4.39-1.67,6.11,6.11,0,0,0,1.94-4.28l27.74-156a6.15,6.15,0,0,0-5.87-6.22L351.25,97.61h-.1a6.17,6.17,0,0,0-6.33,6v.12Z" fill="#3249e6"/><path d="M329.32,220.94a7.68,7.68,0,0,1-7.44-7.89v-.12L341,115.13,540.36,75.84l-24.9,139.82a7.52,7.52,0,0,1-2.4,5.23,7.68,7.68,0,0,1-5.48,2.08Zm-5.93-7.78a6.17,6.17,0,0,0,6,6.27l178.26,2a6.16,6.16,0,0,0,4.41-1.67A6.06,6.06,0,0,0,514,215.5L538.48,77.75,342.32,116.42Z" fill="#b08ee6"/><path d="M542.49,59.54a6.92,6.92,0,0,0-6.68-7.11L351.17,96.85a6.92,6.92,0,0,0-7.11,6.69l-2.39,12.22,197.75-39Z" fill="#6025c0"/><path d="M494.24,175.25l-145,8.83A5.93,5.93,0,0,1,343.5,178l4.5-19.18a5.93,5.93,0,0,1,6.08-5.72L497.9,135.87a5.92,5.92,0,0,1,5.71,6.08l-3.29,27.58A5.93,5.93,0,0,1,494.24,175.25Z" fill="#976ae2"/><path d="M518.5,139.05c-4.73,13.81-24.88,26.55-36.73,22.49S466.6,147.83,471.31,134s24.6-25.21,36.45-21.15S523.22,125.25,518.5,139.05Z" fill="#6025c0"/><ellipse cx="360.18" cy="167.61" rx="10.34" ry="8.94" transform="translate(61.61 429.68) rotate(-66.23)" fill="#6025c0"/><ellipse cx="384.88" cy="165.52" rx="11.52" ry="10.26" transform="translate(78.26 451.04) rotate(-66.23)" fill="#d3bff3"/><polygon points="407.8 155.55 405.38 169.8 458.82 165.47 461.26 150.42 407.8 155.55" fill="#fff"/><polygon points="457.47 170.59 455.84 184.47 419.58 186.54 421.98 173.48 457.47 170.59" fill="#fff"/><path d="M478.41,119c1,3.8,3.32,8.32,8.57,10.3,9.91,3.74,11.12,2.78,9.22,7.49s-3.71,3.44-4.17,2.19-3.24,5.94-2.85,9.1-.45,5.88,2.33,7.95a22.76,22.76,0,0,1-7.15.94c-11.83-.36-19.07-10.44-16.19-22.51A28.31,28.31,0,0,1,478.41,119Z" fill="#ecf3ff"/><path d="M489.18,148.11c-.39-3.16,2.39-10.36,2.85-9.1s2.29,2.51,4.17-2.19.69-3.75-9.22-7.49c-5.24-2-7.55-6.48-8.57-10.3a25.82,25.82,0,0,1,16.42-5.73c11.83.36,19.08,10.44,16.19,22.51a28.84,28.84,0,0,1-19.51,20.25C488.73,154,489.55,151.18,489.18,148.11Z" fill="#0c2340"/><path d="M505.33,147c-2.6-1.06-7.09-4.16-5.43-8.34s1.12-7.29-6.38-10.84A20.9,20.9,0,0,1,483,116.26l1.44-.46a19.66,19.66,0,0,0,9.72,10.69c7.28,3.45,9.35,7.15,7.14,12.77-1.53,3.84,4.53,6.36,4.59,6.38Z" fill="#1a406b"/><path d="M484.89,130.58c-5.72-3-6.56-10.16-6.59-10.46l1.5-.17c0,.07.8,6.66,5.79,9.29Z" fill="#1a406b"/><path d="M507.49,140.57a2.47,2.47,0,0,1-1.3-.36c-.88-.57-1.23-1.7-1.05-3.37.44-4.21-2.38-6.4-8.31-10.57s-5.17-12.44-5.14-12.78l1.51.16c0,.08-.76,7.66,4.51,11.38,5.72,4,9.49,6.69,8.93,12-.11,1,0,1.71.37,1.94s1.74-.09,2.41-.48l.76,1.31A5.89,5.89,0,0,1,507.49,140.57Z" fill="#1a406b"/><path d="M496.94,154.23c-8.82-4.32-5.09-14.57-5.05-14.67l1.42.53c-.14.37-3.28,9.07,4.3,12.78Z" fill="#1a406b"/><path d="M511,131c-9.05-7.49-6.55-13.88-6.44-14.15l1.4.58-.7-.29.7.29c-.09.22-2.13,5.67,6,12.4Z" fill="#1a406b"/><path d="M481.08,124.8a12.77,12.77,0,0,0,5.9,4.53c9.91,3.74,11.12,2.78,9.22,7.49s-3.71,3.44-4.17,2.19-3.24,5.94-2.85,9.1-.44,5.82,2.22,7.87a3.55,3.55,0,0,1-.44.21c-4,1.62-9.76.44-9.76.44l1.85-9.13c-4.76-.27-6.27-3-6.37-4.5-.21-2.64,4.29-17.91,4.29-17.91Z" fill="#ffb9a3"/><path d="M487.19,156.91a27.25,27.25,0,0,1,4.37-17.84l1.21.91a26.18,26.18,0,0,0-4.07,16.79Z" fill="#1a406b"/><path d="M232.21,163.11s-4.72,0-7,1.89,11.82,40,20.4,40.73,21-9.59,21-9.59l1.23-19.8-7.74-9.59Z" fill="#ffb39b"/><path d="M250.54,163.48s-3.66-2.39-3.8,7.64l-1.18,8-13.42-8.86-1.78-7.12,13-2.67Z" fill="#ffb39b"/><path d="M226.7,163.73s10.86,29.2,21.44,35.7c0,0,9,9.39,16.21-31.46,0,0,14.33,51.47,13.79,53.39s-8.38,15-11.43,14.77-42-.55-42-.55Z" fill="#f6e05e"/><path d="M230.56,183l-19.13,25.71c4.42,22.26,22.74,14.43,22.74,14.43-9.64,21.63-21.7,33.83-27,33.15s-11.44-24.22-11.44-24.22-6.1-37.23,3.12-51.8,23-14.63,23-14.63Z" fill="#f6e05e"/><polygon points="221.91 165.63 226.7 163.74 230.56 182.98 221.91 165.63" fill="#ecc94b"/><path d="M221.38,194.81s5.55-12.22.53-29.17l4.79-1.91s1.16,17.54.72,21.65S221.38,194.81,221.38,194.81Z" fill="#d69e2e"/><path d="M292.78,224.34s-2.34,21.87-1.89,25.86-3.4-1-3.4-1l-2.59-5.42Z" fill="#009589"/><path d="M232.65,253.72,214.72,252l-18.52-2-11.69-1.25s6.34-14.76,13-14.38,30.1.58,30.1.58Z" fill="#ffc2af"/><path d="M203.15,238.14s-6.4.36-17.16,7.37c0,0,3.83-10,9.14-11.52S203.15,238.14,203.15,238.14Z" fill="#ffcaba"/><path d="M281.91,178s-15.4-11.72-17.55-10,11.88,53,11.88,53l-12.42,13.79-36.17.3,5,18.7S300.45,266,304.17,263,301.79,209.2,281.91,178Z" fill="#f6e05e"/><path d="M265.73,135.4s13.82-18.74,3.59-24.21-23.07-19.85-34.85-6.53c0,0,2.43-13.8-11.45-3.34,0,0-1.08-4.49-4.16,10.22,0,0-7.52-10.36-12.18.33,0,0-11.87,16.67,7.11,17.87,0,0-4,8,5.68,12.66,0,0-12.35,2.21-3.42,10.5a38.52,38.52,0,0,0,20,9.45L244.3,149l14-23.46Z" fill="#0c2340"/><path d="M263.9,133.16l8.51,8.51s.16,2.13-2.87,2.91c0,0-2.34,2.23.12,4.32l-.88,1.78-.8.6s2.1,1.13,1.07,2.13l-1,1s1.35,8.66-1.59,8.89-5.19-1.14-6.93-.61-6.89,1.84-9,.81-18.61,9.14-15.73,5.74c1.32-1.56,1.3-19.3,1.3-19.3s-4.11-8.94-2-12,6.89-4.33,7.7,3.71l1,1.47a3.27,3.27,0,0,1,2.66-3.77l.26,0c3.45-.47,5.22-3.17,4.8-7.88s2.3-15.47,9.6-12.29C260.06,119.13,265.23,125.64,263.9,133.16Z" fill="#ffb39b"/><path d="M262.76,133.8l-1.75,1L257.18,137s4.43.24,5.43,1.57l-1.27-3Z" fill="#5d1600"/><path d="M263.09,130.72s-1.68-5.85-8.78,2.2c0,0,4.48-7.23,6.93-6.82S263.09,130.72,263.09,130.72Z" fill="#5d1600"/><path d="M268,154.42c-1.45-2.47-3.09-.66-3.68-1.27s-.3-.94-.3-.94c.76,0,4.83-3,4.83-3l.41.76-1.26,1.3,1.26,1.29S268.43,155.12,268,154.42Z" fill="#ea7264"/><path d="M266.44,129.33s7.09-10.52-.07-18.37C266.37,111,269.12,111.38,266.44,129.33Z" fill="#1a406b"/><path d="M243.84,133.31s12.81-22.63,4.17-31.16c0,0,7.64,8.33-5.9,29.95C242.11,132.1,238.31,140.06,243.84,133.31Z" fill="#1a406b"/><path d="M238.24,102s12.41,11.89-5.68,34.2C232.56,136.15,246.31,119,238.24,102Z" fill="#1a406b"/><path d="M239.49,155.14s11.55,8.16,15,8.35C254.47,163.5,246.77,164.45,239.49,155.14Z" fill="#ea7264"/><path d="M234.65,158.94c2.1.22,4-2,4.37-4.87s-1.14-5.46-3.24-5.68a2.75,2.75,0,0,0-.81,0,3.4,3.4,0,0,1,1.55-.22c2.47.27,4.16,3.24,3.8,6.64s-2.66,5.95-5.11,5.69-4-2.95-3.84-6.16C231.49,156.81,232.84,158.74,234.65,158.94Z" fill="#fff"/><path d="M231.41,153.92v.48a10.84,10.84,0,0,1,0-1.14c.27-2.54,1.79-4.51,3.57-4.83C233.17,149.12,231.7,151.24,231.41,153.92Z" fill="#fff"/><ellipse cx="234.61" cy="120.1" rx="12.95" ry="10.22" transform="translate(90.3 340.64) rotate(-83.91)" fill="#0c2340"/><path d="M211.84,109.06s-3.88-4.36-7.94,4.09C203.91,113.16,206.2,101.84,211.84,109.06Z" fill="#4a49ca"/><path d="M216.48,128.51s-7.37,2.38-5,11.71C211.48,140.22,206.26,127.12,216.48,128.51Z" fill="#4a49ca"/><path d="M252.41,119.31s6.71-9.15,3-13.3C255.41,106,262.53,113.28,252.41,119.31Z" fill="#1a406b"/><polygon points="261.11 135.33 262 137.07 259.48 136.8 261.11 135.33" fill="#fff"/><path d="M234.46,104.66A21,21,0,0,1,231.07,125S242.34,114.69,234.46,104.66Z" fill="#1a406b"/><path d="M228.84,217.29l5.36,5.83s-6.84,2.89-9,1.89S228.84,217.29,228.84,217.29Z" fill="#d69e2e"/><path d="M266.75,141.62s-2.05,3.17,1.82,2.75C268.57,144.37,265.77,143.89,266.75,141.62Z" fill="#ea7264"/><path d="M239.69,139.17s-4.56-2.85-3.9,1.77a21.94,21.94,0,0,0,1.61,6.42S234.16,137.59,239.69,139.17Z" fill="#ea7264"/><path d="M256.76,175.15s4.82,6.11-2.36,22.09c0,0,10.19-15.34,8-25.43S256.76,175.15,256.76,175.15Z" fill="#ea7264"/><path d="M211.4,208.2l26.12-35.32a23,23,0,0,1,1.65-7.27c1.41-2.92,12.33-13,12.56-15.09s4,1.62,1.33,8l8.52.25s2.78,1.61,2.91,7.54,1.11,11.18-2.73,13.28c0,0-9.46-1.67-11.66.51s-22.49,44.47-22.49,44.47S211.42,224.52,211.4,208.2Z" fill="#ffcaba"/><path d="M214.89,216.68s24-23.05,27.41-29.05,7.81-7.5,7.81-7.5L227.62,224.6S215.49,224.3,214.89,216.68Z" fill="#ffc2af"/><path d="M253.8,151.62s-1.58,5.64-3.34,6.65,2.6.28,2.6.28S254.45,152.68,253.8,151.62Z" fill="#ffc2af"/><path d="M263.62,162.31a3.25,3.25,0,0,1,0,3.17c-1,1.43.84,3.43.42,4.32s-3.45,9.27-5,9.1,5.55,3.44,5.66-3.77A65.61,65.61,0,0,0,263.62,162.31Z" fill="#ffc2af"/><path d="M211.4,208.2l-8.91,13.73S211.56,201.65,211.4,208.2Z" fill="#d69e2e"/><path d="M263.81,234.71s9.4-1.24,15.13.52,9.21,3,9.21,3-6.72-2.37-9.85-8.6c-2.83-5.67-2.07-8.65-2.07-8.65Z" fill="#d69e2e"/><path d="M269.18,169.69s-.29,16.06,2,28.46S264.36,168,264.36,168,269.2,168.38,269.18,169.69Z" fill="#d69e2e"/><path d="M245.19,190.43c-5.41-2.25-10.92-13.52-11.15-14l.52-.25c.05.11,5.64,11.54,10.85,13.71Z" fill="#843626"/><path d="M244.09,192.09c-5.41-2.25-10.92-13.51-11.15-14l.51-.25c.06.11,5.65,11.54,10.86,13.71Z" fill="#843626"/><path d="M243,194.78c-5.84-.44-14.6-9.41-15-9.79l.41-.4c.09.09,9,9.2,14.6,9.62Z" fill="#843626"/><path d="M227.64,235l42.61-1.18S287.79,230.14,227.64,235Z" fill="#d69e2e"/><path d="M234.19,223.12l-2.68,12Z" fill="#009589"/><path d="M119,160.26s8.24,5.64,8.5,11.28-12.75,18.13-12.75,18.13-20.09.49-21.07-7.35-.16-23-.16-23l7.51-2.45Z" fill="#ffb9a3"/><path d="M94.41,166.27s5.44-16.61,4.37-29.31l9.15,6.32,8.08,5.46,3,4.29s-.35-.12-.2,11.51,2.24,21.28-2.5,24.85S94.41,166.27,94.41,166.27Z" fill="#ffb9a3"/><path d="M93.6,159.37s-3,27.09,16.74,24.42c17.48-2.37,10-23.19,10-23.19s30.54,10,35.77,18.29A184.65,184.65,0,0,1,172.68,213c2.2,6.1-7.41,12.56-6.2,19.09C170.73,255,164.9,253,164.9,253l-60.11,8.49L62,255.66l-5.56-8.5,9.47-18.94s-31-.82-34-9.47c0,0,2.29-32.67,13.07-41.49S77.44,161.65,93.6,159.37Z" fill="#6025c0"/><polygon points="172.74 212.15 152.28 214.21 153.6 251.64 153.83 256.09 177.87 254.67 181.82 254.49 172.74 212.15" fill="#ffcaba"/><polyline points="124.79 306.93 173.06 292.32 100.45 270.42 41.63 280.56 121.95 307.33" fill="#b3cdfa"/><polyline points="124.79 304.61 173.06 290.01 100.45 268.1 41.63 278.24 121.95 305.02" fill="#f0eafb"/><polygon points="82.48 285.83 121.87 298.24 125.82 299.49 124.64 302.34 82.06 289.21 82.48 285.83" fill="#ecc94b"/><polygon points="121.36 297.9 120.35 301.17 124.8 302.63 125.62 299.63 121.36 297.9" fill="#b7791f"/><polygon points="76.97 285.86 82.48 285.83 82.06 289.21 76.97 285.86" fill="#f6ad55"/><ellipse cx="45.21" cy="295.38" rx="27.87" ry="5.67" fill="#dadaf4"/><polygon points="114.11 150.08 98.78 136.96 108.38 117.53 121.07 113.02 128.26 110.56 135.45 112.49 138.36 113.09 140.42 116.39 114.11 150.08" fill="#ffb9a3"/><path d="M167.79,96.63s8.21,13.85-8.6,18.44c0,0-8.38,1.66-8.68,1.89s-.27-4-.27-4S168.27,111,167.79,96.63Z" fill="#0c2340"/><path d="M148.53,129.67l1.89,12.75s-.14,1.2-5.84.45l-.33,3.28-2.85-.09s-4.34-.33-4.5.34c-.23.91,3,5.41,3.41,5.93.27.33-.16,1.43-1.52,2.17s-.61,8.59-.61,8.59-4,1.43-6.63.79-7-5.08-7-5.08l-10.47-8.72.13-11.66,20.22-22.53,8.17-2.19,8.48,1.35.73,8.11S150,128.8,148.53,129.67Z" fill="#ffb9a3"/><path d="M110.12,77.14l2.76-2.51a4.18,4.18,0,0,1,3.07-.95v1.14a9.37,9.37,0,0,0-2.48.76Z" fill="#6f6f89"/><path d="M149.83,99.83c-7.62,0-15.93-4.49-22.06-8.29-7.61-4.72-22.59.16-22.75.21l-.36-1.09c.64-.21,15.65-5.1,23.71-.1,7.77,4.82,19.09,10.77,27.64,6.84l.48,1A15.92,15.92,0,0,1,149.83,99.83Z" fill="#fcdaaa"/><path d="M96.61,99.22l-1.1-.3c2-7.58,10.07-11,10.41-11.19l.44,1.06C106.29,88.82,98.51,92.18,96.61,99.22Z" fill="#008130"/><path d="M149.41,124.5s-.72-6.36-11.52.43c0,0,7.92-9,12.16-4.8C150.05,120.13,150.62,121.22,149.41,124.5Z" fill="#6c2300"/><polygon points="147.18 128.41 143.99 128.1 138.4 127.56 143.5 132.24 142.88 130.36 147.18 128.41" fill="#ea7264"/><path d="M95.88,108.76a1.76,1.76,0,0,0-.13-.5C95.8,108.42,95.84,108.59,95.88,108.76Z" fill="#1a406b"/><path d="M96,109.47a2.16,2.16,0,0,0-.11-.49A.82.82,0,0,1,96,109.47Z" fill="#1a406b"/><path d="M96.19,110.23a4.21,4.21,0,0,1-.09-.49A4.21,4.21,0,0,0,96.19,110.23Z" fill="#1a406b"/><path d="M96.45,111.89a4.69,4.69,0,0,0-.09-.64C96.39,111.46,96.43,111.68,96.45,111.89Z" fill="#1a406b"/><path d="M96.33,111a2.59,2.59,0,0,0-.1-.53C96.27,110.66,96.29,110.84,96.33,111Z" fill="#1a406b"/><path d="M95.53,107.41c-.12-.45-.25-.87-.39-1.29C95.28,106.52,95.41,107,95.53,107.41Z" fill="#1a406b"/><path d="M94.68,104.8l-.13-.37Z" fill="#1a406b"/><path d="M94.89,105.36l-.14-.39Z" fill="#1a406b"/><path d="M95.71,108.06c-.06-.2-.11-.41-.17-.61C95.6,107.66,95.66,107.86,95.71,108.06Z" fill="#1a406b"/><path d="M94.49,104.27a1,1,0,0,0-.14-.35A3.17,3.17,0,0,1,94.49,104.27Z" fill="#1a406b"/><path d="M95.1,106a2.08,2.08,0,0,0-.15-.44A3.16,3.16,0,0,1,95.1,106Z" fill="#1a406b"/><path d="M96.64,113.69a2.73,2.73,0,0,0-.07-.75C96.6,113.19,96.62,113.45,96.64,113.69Z" fill="#1a406b"/><path d="M132.72,115a11.45,11.45,0,0,1-3.68-.51A11.45,11.45,0,0,0,132.72,115Z" fill="#1a406b"/><path d="M126.58,113.52l-.27-.14Z" fill="#1a406b"/><path d="M96.51,119.36a9.24,9.24,0,0,1,.1-.92C96.58,118.74,96.54,119.05,96.51,119.36Z" fill="#1a406b"/><path d="M96.62,118.14v-.61A1.79,1.79,0,0,1,96.62,118.14Z" fill="#1a406b"/><path d="M94.29,103.78c-.05-.13-.1-.25-.16-.38C94.19,103.53,94.24,103.65,94.29,103.78Z" fill="#1a406b"/><path d="M96.72,115.4v-.54A4.84,4.84,0,0,0,96.72,115.4Z" fill="#1a406b"/><path d="M96.68,117.18v-.55A3.37,3.37,0,0,1,96.68,117.18Z" fill="#1a406b"/><path d="M93.09,101.21v-.06A.11.11,0,0,0,93.09,101.21Z" fill="#1a406b"/><path d="M113.28,75a10.17,10.17,0,0,1,2.64-.79A3.6,3.6,0,0,0,113.28,75Z" fill="#1a406b"/><path d="M93.51,102l-.09-.19A.66.66,0,0,0,93.51,102Z" fill="#1a406b"/><path d="M96.47,112.05a7.46,7.46,0,0,0,.1.81C96.54,112.59,96.51,112.32,96.47,112.05Z" fill="#1a406b"/><path d="M97.51,132.54c-.53-1.06-1.46-3.64-1.35-8.6" fill="#1a406b"/><polygon points="124.21 124.18 124.21 124.18 124.21 124.18 125.66 113.02 125.66 113.02 124.21 124.18" fill="#1a406b"/><path d="M136.94,88.92c-22.1-16.37-23-1.74-23-1.74s-3.84-9.31-.66-12.14c-2.42,1.11-5.38,3.63-3.65,9.29,0,0-1.39-4.88-4.15-3.53,0,0,3.38,3.73,2,5.38s-8.93-1.69-14.68,14.48l.2.34,2-.49s21.88-5.79,41.3,13.9l-.11.18h0c5,.07,14.17,2.93,16.58-.55,2.77-4,13.25,9.76,15.13-23.1C167.88,91,159,105.28,136.94,88.92Z" fill="#1a406b"/><path d="M132.72,115a6.84,6.84,0,0,0,1.56-.23h0A8.16,8.16,0,0,1,132.72,115Z" fill="#1a406b"/><path d="M93.35,101.71a1.55,1.55,0,0,1-.08-.15A1.09,1.09,0,0,1,93.35,101.71Z" fill="#1a406b"/><path d="M94.1,103.32c-.13-.3-.25-.57-.37-.81A4.69,4.69,0,0,1,94.1,103.32Z" fill="#1a406b"/><path d="M93.68,102.4c0-.08-.08-.17-.11-.25C93.6,102.23,93.65,102.32,93.68,102.4Z" fill="#1a406b"/><path d="M94.55,104.43a.44.44,0,0,1-.06-.16Z" fill="#0c2340"/><path d="M96.67,117.53v-.34A1.93,1.93,0,0,1,96.67,117.53Z" fill="#0c2340"/><path d="M96.6,118.44v-.3A1.5,1.5,0,0,1,96.6,118.44Z" fill="#0c2340"/><path d="M125.66,113s.24.15.65.37C125.9,113.15,125.66,113,125.66,113Z" fill="#0c2340"/><path d="M122.13,118.49c.07-3-8.58-7.5-13.39-5.15s-4.68,16.55-4.68,16.55l-6.55,2.64a3.16,3.16,0,0,0,.35.59l.92,3.83,13-4.55s-2.4-8.63-.93-9.59,2.21-6.86,5.39-3.63a12.24,12.24,0,0,1,3.15,8.88c-.17.76,4.8-3.88,4.8-3.88A10.13,10.13,0,0,1,122.13,118.49Z" fill="#0c2340"/><path d="M96.7,114.86v-.32A1.71,1.71,0,0,0,96.7,114.86Z" fill="#0c2340"/><path d="M96.7,116.63a2.16,2.16,0,0,1,0-.36A2.16,2.16,0,0,1,96.7,116.63Z" fill="#0c2340"/><path d="M134.69,114.7l-.32.07A1.14,1.14,0,0,1,134.69,114.7Z" fill="#0c2340"/><path d="M136.16,114.62h-.48A3.84,3.84,0,0,1,136.16,114.62Z" fill="#0c2340"/><path d="M94.35,103.92l-.06-.14Z" fill="#0c2340"/><path d="M127.83,114.07c-.5-.2-.91-.39-1.25-.55C127,113.72,127.4,113.91,127.83,114.07Z" fill="#0c2340"/><path d="M96.15,123.94l.35-4.58C96.29,121.07,96.19,122.6,96.15,123.94Z" fill="#0c2340"/><path d="M93.74,102.51v0Z" fill="#0c2340"/><path d="M96.47,112.05v-.16A.67.67,0,0,0,96.47,112.05Z" fill="#0c2340"/><path d="M93.28,101.56v0Z" fill="#0c2340"/><path d="M95.93,109a.39.39,0,0,0-.05-.23C95.83,108.69,95.91,108.91,95.93,109Z" fill="#0c2340"/><path d="M95,105.53l-.06-.18A.64.64,0,0,0,95,105.53Z" fill="#0c2340"/><path d="M95.75,108.26v-.19A.61.61,0,0,1,95.75,108.26Z" fill="#0c2340"/><path d="M96.57,112.87a.11.11,0,0,0,0,.08Z" fill="#0c2340"/><path d="M96.1,109.73l-.06-.26A1.1,1.1,0,0,0,96.1,109.73Z" fill="#0c2340"/><path d="M93.42,101.84l-.06-.13Z" fill="#0c2340"/><path d="M93.57,102.15l-.06-.13A1.18,1.18,0,0,0,93.57,102.15Z" fill="#0c2340"/><path d="M94.75,105a.49.49,0,0,1,0-.17A.49.49,0,0,0,94.75,105Z" fill="#0c2340"/><path d="M95.14,106.12V106A.5.5,0,0,0,95.14,106.12Z" fill="#0c2340"/><path d="M93.16,101.32a.75.75,0,0,1-.07-.12A.75.75,0,0,0,93.16,101.32Z" fill="#0c2340"/><path d="M96.66,114v-.26A1.13,1.13,0,0,0,96.66,114Z" fill="#0c2340"/><path d="M96.23,110.48v-.25A.53.53,0,0,0,96.23,110.48Z" fill="#0c2340"/><path d="M93,101l.06.13A.31.31,0,0,1,93,101Z" fill="#0c2340"/><path d="M136.27,114.42C116.85,94.73,95,100.52,95,100.52L93,101a.54.54,0,0,1,.07.13v.06c0,.06,0,.08.07.12v.12a.27.27,0,0,1,.06.12,1.09,1.09,0,0,0,.08.15l.06.13.09.19.06.13c0,.08.08.16.11.25s0,.07,0,.11l.37.81v.08c0,.13.1.24.16.38l.06.14a1.26,1.26,0,0,0,.14.36.43.43,0,0,1,0,.16c0,.12.1.24.14.36a.64.64,0,0,1,.06.18,1.32,1.32,0,0,0,.14.39c0,.13,0,.11,0,.17s.11.3.15.45a.69.69,0,0,1,.05.13c.14.42.26.84.39,1.29v.06a4.21,4.21,0,0,1,.16.61v.18l.12.5.06.23a2.37,2.37,0,0,0,.11.5.49.49,0,0,1,0,.25,4.21,4.21,0,0,1,.09.49v.26l.09.52v.25a1.58,1.58,0,0,0,.09.63v.16q.06.4.09.81a.11.11,0,0,0,0,.08,2.76,2.76,0,0,0,.07.75,1.13,1.13,0,0,1,0,.26v3.57a2.86,2.86,0,0,1,0,.61c0,.19,0,.2,0,.3a5.77,5.77,0,0,1-.11.92l-.34,4.58c-.11,4.95.82,7.53,1.34,8.6l7-2.63s-.13-14.2,4.67-16.55,13.47,2.19,13.4,5.15a10.13,10.13,0,0,0,2.09,5.69h0L125.64,113h0s.24.15.65.37l.26.14a11.72,11.72,0,0,0,1.26.55,13,13,0,0,0,4.9.93,7.44,7.44,0,0,0,1.56-.23h.09l.32-.07h1.47Z" fill="#0c2340"/><path d="M144.4,139.07a1.34,1.34,0,0,1-.4-.07c-.66-.17-1.48-.84-1.66-3a16.07,16.07,0,0,1,.59-5.3c1-3.73,3.08-7.21,5.1-6.67.66.18,1.48.85,1.66,3a15.86,15.86,0,0,1-.59,5.31,16.21,16.21,0,0,1-2.15,4.89C145.93,138.68,145.05,139.07,144.4,139.07Zm3.21-13.95c-.86,0-2.58,2.15-3.58,5.87h0a14.76,14.76,0,0,0-.56,4.9c.12,1.36.51,1.93.82,2s.93-.21,1.71-1.32a14.58,14.58,0,0,0,2-4.53,14.79,14.79,0,0,0,.56-4.91c-.12-1.35-.51-1.93-.82-2Z" fill="#082b5e"/><path d="M149.56,139.64a1.52,1.52,0,0,1-.42-.06c-2-.55-2.07-4.6-1.07-8.32h0c1-3.73,3.08-7.22,5.1-6.67.66.18,1.48.84,1.66,3a15.81,15.81,0,0,1-.59,5.3C153.31,136.38,151.45,139.64,149.56,139.64Zm-.38-8.09c-1.05,3.9-.55,6.7.26,6.92s2.64-1.95,3.69-5.85a14.79,14.79,0,0,0,.56-4.91c-.12-1.35-.51-1.93-.82-2-.79-.22-2.64,2-3.69,5.85Z" fill="#082b5e"/><rect x="131.19" y="114.41" width="1.15" height="24.8" transform="translate(-31.19 209.8) rotate(-70.89)" fill="#082b5e"/><path d="M138.52,147.61s.95,3.84,1.39,4.22c0,0-3-3.79-3-5.43,0,0,.26-.64,3.15-.38C140,146,138.06,146.46,138.52,147.61Z" fill="#ea7264"/><polygon points="138.24 146.25 139.35 146.64 143.72 146.79 144.31 146.14 139.44 145.8 138.24 146.25" fill="#ecf3ff"/><path d="M108.45,95.46s1-11.28,37.24,3.91C145.69,99.37,117.92,79,108.45,95.46Z" fill="#0c2340"/><path d="M117.6,97.41s18.29,17,42.47,8.82C160.07,106.24,140.79,109.18,117.6,97.41Z" fill="#0c2340"/><path d="M110.73,100.68s-6.07-2.78-5.89-9.47S106.82,89.9,110.73,100.68Z" fill="#0c2340"/><path d="M153.6,251.64c-1.43-.92-19.26-3-19.39-4.2" fill="#ffcaba"/><path d="M148.16,263.72l.76-2.47" fill="#ffcaba"/><path d="M114.25,248.6c-13.48,1.16-48.61-7.62-50.84-9.37,0,0,2.81-7.27,2.34-11.95l-33.67-9.61s-3,32-.88,41.11c0,0,14.87,9.84,79.05,4.57" fill="#ffcaba"/><path d="M27.79,274.84s-9.07,1,3.43,10.46l1,2s-12.36-6.55-10-11.93C23.62,272.23,27.79,274.84,27.79,274.84Z" fill="#ecf3ff"/><ellipse cx="45.21" cy="294.17" rx="27.87" ry="5.67" fill="#ecf3ff"/><ellipse cx="45.21" cy="294.17" rx="18.21" ry="3.7" fill="#fff"/><path d="M68.13,290.86s-12.25,6.37-21.07,5.38,3.6-7,3.6-7S66.82,289.79,68.13,290.86Z" fill="#dadaf4"/><path d="M34.16,291c2.65,4.45,14.37,12,22.71,1.77,3.83-4.7,9.31-21.92,9.31-21.92H26.55S31.4,286.33,34.16,291Z" fill="#ecf3ff"/><ellipse cx="46.35" cy="270.81" rx="19.82" ry="4.03" fill="#b3cdfa"/><ellipse cx="46.52" cy="272.98" rx="12.32" ry="1.97" fill="#7b341e"/><path d="M66.18,270.81S59.75,294,52.46,296.29A10.14,10.14,0,0,1,48,297.81c-2.45.16-5.34-22.75-5.34-22.75S62.47,275.33,66.18,270.81Z" fill="#dadaf4"/><ellipse cx="222.3" cy="269.77" rx="27.87" ry="5.67" fill="#dadaf4"/><path d="M204.89,249.23s-9.07,1,3.43,10.46l1,2s-12.36-6.56-10-11.93C200.72,246.61,204.89,249.23,204.89,249.23Z" fill="#ecf3ff"/><ellipse cx="222.3" cy="268.55" rx="27.87" ry="5.67" fill="#ecf3ff"/><ellipse cx="222.3" cy="268.55" rx="18.21" ry="3.7" fill="#fff"/><path d="M245.23,265.23s-12.25,6.37-21.07,5.39,3.6-7,3.6-7S243.92,264.16,245.23,265.23Z" fill="#dadaf4"/><path d="M211.26,265.33c2.65,4.46,14.37,12,22.71,1.77,3.83-4.69,9.31-21.91,9.31-21.91H203.65S208.5,260.71,211.26,265.33Z" fill="#ecf3ff"/><ellipse cx="223.45" cy="245.2" rx="19.82" ry="4.03" fill="#b3cdfa"/><ellipse cx="223.61" cy="247.36" rx="12.32" ry="1.97" fill="#7b341e"/><path d="M243.27,245.2s-6.43,23.19-13.72,25.47a10.07,10.07,0,0,1-4.47,1.53c-2.45.16-5.34-22.75-5.34-22.75S239.57,249.71,243.27,245.2Z" fill="#dadaf4"/><path d="M68.78,209.05s-.51,15.09-3,18.23l-2.34,11.95S73.72,248.45,68.78,209.05Z" fill="#35156b"/><path d="M107.44,189q-2.09,0-4.5-.24c-16.56-1.69-14.5-28.08-14.48-28.35l1.15.1c0,.26-2,25.53,13.44,27.11s19.62-5.14,20.56-7.23c.83-1.85,2.92-10.92,1.51-17.48l1.12-.24c1.46,6.81-.72,16.26-1.58,18.19S120,189,107.44,189Z" fill="#35156b"/><rect x="49.12" y="199.17" width="1.15" height="35.46" transform="translate(-172.53 205.43) rotate(-74.14)" fill="#35156b"/><path d="M116.76,124.43s-4.36-5.52-3.68,4.46,1.35,4.07,1.35,4.07S112.2,122.78,116.76,124.43Z" fill="#ea7264"/><path d="M107.93,143.28s10.68,10.81,12.52,11.58-10.86-12.11-13-12.79S107.93,143.28,107.93,143.28Z" fill="#ea7264"/><path d="M116.18,151.38s1.35,12.5-1.94,15.9,6.58-5.24,6.58-5.24L119,160.28v-7.23Z" fill="#ea7264"/><path d="M148.16,263.72S137,265.46,134,265.17,138.28,267.4,148.16,263.72Z" fill="#ffc2af"/><path d="M148.92,261.25s-13.64.63-17.23.63S141,264.4,148.92,261.25Z" fill="#ffc2af"/><path d="M153.83,256.09s-18.28,1.52-20.59.55S132.08,260.2,153.83,256.09Z" fill="#ffc2af"/><path d="M130.92,247.92l-5.43,2.71a25.66,25.66,0,0,0,6.78.19C134.69,250.34,131.2,250.15,130.92,247.92Z" fill="#ffc2af"/><path d="M109.36,263.41l6.23,2.24s3.4,5.24,21.41,1.55a24.32,24.32,0,0,0,4.1-1.18c1-.52,7.17.93,7.77.82s5,3.77,5.78,3.77,1.86.21,1.78-.8a6.2,6.2,0,0,0-1-2.33s2.35,2.4,2.17.38l-.81-3.24s2,.85,2.43-.71l-.82-4-1.31-1.31-1.2-3.68L151,250.84s-5.76-2.38-6.4-2.22-5.4-.87-5.4-.87,3.27-2.83,2.59-3.34-4.41-.67-4.41-.67h-1.72l-8.8,1.26-6.54,2.46c-.39.13-5,2.18-5,2.18L112,250.78l-4.5.25-3.34,10,1.1,1Z" fill="#edb3a6"/><path d="M45,221.55s-12.22,7.66-14.53,20.16l1.44-24.05Z" fill="#ffc2af"/><path d="M30.5,253.34s41.77,11.43,81.81,8.14c0,0,2.13,2-9.5,2.52s-56.53,2.94-71.59-5.22Z" fill="#ffc2af"/><path d="M63.64,235.7s-4.56,6.2-7,6.4,15.71,1.07,25,2.33c0,0-18.38-4.1-18.25-5.2S63.64,235.7,63.64,235.7Z" fill="#ffc2af"/><path d="M109.36,262.41l6.23,2.24s3.4,5.24,21.41,1.55a24.32,24.32,0,0,0,4.1-1.18c1-.52,7.17.93,7.77.82s5,3.77,5.78,3.77,1.86.21,1.78-.8a6.2,6.2,0,0,0-1-2.33s2.35,2.4,2.17.38l-.81-3.24s2,.85,2.43-.71l-.82-4-1.31-1.31-1.2-3.68L151,249.84s-5.76-2.38-6.4-2.22-5.4-.87-5.4-.87,3.27-2.83,2.59-3.34-4.41-.67-4.41-.67h-1.72l-8.8,1.26-6.54,2.46c-.39.13-5,2.18-5,2.18L112,249.78l-4.5.25-3.34,10,1.1,1Z" fill="#ffcaba"/><rect x="150.64" y="207.74" width="19.72" height="1.15" transform="translate(-20.9 17.92) rotate(-6)" fill="#35156b"/><path d="M149.25,197,151,249.82l3.6,3.08S152.35,203.16,149.25,197Z" fill="#35156b"/><ellipse cx="113.98" cy="222.15" rx="5.18" ry="5" transform="translate(-124.36 147.74) rotate(-45.5)" fill="#482399"/><path d="M130.51,217.41l-5.76-5.76a14.74,14.74,0,0,0-20.85.06l0,0c-.39.39-.77.8-1.12,1.22l-5.47,6.42a5.33,5.33,0,0,0-.18,7.17h0a3.89,3.89,0,0,0,.36.34l5.75,5.76a13,13,0,0,0,1.1,1l-.26-10.58v-.33a10.39,10.39,0,0,1,9.71-10.52,9.56,9.56,0,0,1,10.16,8.92c0,.14,0,.29,0,.43a10.38,10.38,0,0,1-9.71,10.51,9.74,9.74,0,0,1-5.11-1.09l.12,5.33a15.13,15.13,0,0,0,16-5l5.46-6.42.34-.39h0A5.48,5.48,0,0,0,132.2,221,5.2,5.2,0,0,0,130.51,217.41Z" fill="#482399"/><path d="M283.46,272.4l42,6a3.73,3.73,0,0,1,.37,7.23l-120.1,36.86a3.79,3.79,0,0,1-2.06,0l-33.46-9a3.73,3.73,0,0,1-.18-7.16l111.55-33.9A3.74,3.74,0,0,1,283.46,272.4Z" fill="#f0eafb"/><path d="M189.42,107.66h-.06a.61.61,0,0,1-.55-.66c.06-.61.12-1.22.19-1.82a.61.61,0,0,1,1.21.14c-.07.59-.14,1.19-.19,1.79A.61.61,0,0,1,189.42,107.66Z" fill="#dfdae8"/><path d="M190.12,102.26H190a.61.61,0,0,1-.5-.7c.2-1.2.44-2.41.7-3.59a.6.6,0,0,1,.72-.46.59.59,0,0,1,.46.72c-.25,1.16-.49,2.35-.69,3.53A.6.6,0,0,1,190.12,102.26Zm1.57-7.09-.16,0a.61.61,0,0,1-.43-.75c.33-1.18.68-2.35,1.06-3.5a.62.62,0,0,1,.77-.39.6.6,0,0,1,.38.77c-.37,1.13-.72,2.29-1,3.44A.61.61,0,0,1,191.69,95.17Zm2.27-6.9a.57.57,0,0,1-.22,0,.61.61,0,0,1-.35-.78c.44-1.14.91-2.27,1.4-3.38a.61.61,0,1,1,1.11.49c-.48,1.09-1,2.21-1.38,3.33A.59.59,0,0,1,194,88.27Zm140.88-4.52a.62.62,0,0,1-.55-.34c-.52-1.1-1.06-2.19-1.61-3.23a.59.59,0,0,1,.25-.81.6.6,0,0,1,.82.25c.56,1,1.11,2.15,1.64,3.27a.6.6,0,0,1-.29.8A.58.58,0,0,1,334.84,83.75ZM196.9,81.64a.64.64,0,0,1-.27-.07.6.6,0,0,1-.27-.81c.54-1.08,1.12-2.17,1.72-3.23a.61.61,0,1,1,1.06.6c-.59,1-1.16,2.11-1.7,3.17A.62.62,0,0,1,196.9,81.64Zm134.54-4.3a.59.59,0,0,1-.52-.29c-.62-1-1.26-2.07-1.92-3a.61.61,0,1,1,1-.67c.67,1,1.32,2,1.95,3.1a.61.61,0,0,1-.21.83A.71.71,0,0,1,331.44,77.34Zm-131-2a.58.58,0,0,1-.33-.1.6.6,0,0,1-.18-.83c.65-1,1.33-2,2-3a.6.6,0,1,1,1,.69c-.69,1-1.36,2-2,3A.61.61,0,0,1,200.48,75.32Zm126.93-4a.61.61,0,0,1-.48-.25c-.72-1-1.48-1.91-2.24-2.81a.62.62,0,0,1,.07-.86.62.62,0,0,1,.86.08c.77.92,1.54,1.88,2.28,2.87a.6.6,0,0,1-.12.84A.58.58,0,0,1,327.41,71.31ZM204.66,69.39a.64.64,0,0,1-.37-.13.61.61,0,0,1-.1-.85c.75-1,1.53-1.91,2.33-2.83a.6.6,0,0,1,.85-.06.61.61,0,0,1,.06.86c-.78.9-1.55,1.83-2.29,2.77A.6.6,0,0,1,204.66,69.39Zm70.11-.72a.62.62,0,0,1-.61-.58.6.6,0,0,1,.58-.63,10.45,10.45,0,0,0,3.35-.71.61.61,0,0,1,.44,1.13,12.08,12.08,0,0,1-3.74.79Zm-3.58-.5-.2,0A7.77,7.77,0,0,1,267.73,66a.59.59,0,0,1,0-.85.6.6,0,0,1,.85,0A6.57,6.57,0,0,0,271.39,67a.61.61,0,0,1-.2,1.18Zm10.21-2.12a.61.61,0,0,1-.45-.2.59.59,0,0,1,0-.85,7.55,7.55,0,0,0,1.69-2.16,5.77,5.77,0,0,0,.27-.56.62.62,0,0,1,.8-.31.6.6,0,0,1,.31.8q-.13.31-.3.63a8.85,8.85,0,0,1-2,2.5A.6.6,0,0,1,281.4,66.05Zm41.33-.29a.59.59,0,0,1-.44-.19c-.82-.87-1.68-1.71-2.55-2.52a.6.6,0,0,1,0-.85.61.61,0,0,1,.86,0c.89.82,1.77,1.69,2.61,2.58a.6.6,0,0,1,0,.85A.63.63,0,0,1,322.73,65.76Zm-113.3-1.85a.59.59,0,0,1-.42-.17.61.61,0,0,1,0-.86c.75-.77,1.52-1.54,2.29-2.27l.32-.3a.6.6,0,0,1,.82.88l-.3.29c-.77.73-1.52,1.48-2.26,2.24A.63.63,0,0,1,209.43,63.91ZM266.54,63a.6.6,0,0,1-.59-.48,8.78,8.78,0,0,1-.21-1.93,9.69,9.69,0,0,1,.19-1.92.61.61,0,0,1,.71-.48.62.62,0,0,1,.48.72,8,8,0,0,0-.17,1.68,7.7,7.7,0,0,0,.18,1.67.6.6,0,0,1-.46.72Zm50.86-2.19a.64.64,0,0,1-.38-.14c-.92-.75-1.89-1.47-2.86-2.16a.6.6,0,0,1,.69-1c1,.7,2,1.45,2.94,2.21a.62.62,0,0,1,.09.85A.63.63,0,0,1,317.4,60.84Zm-33-1.21h0a.61.61,0,0,1-.56-.66c0-.32,0-.64,0-1a12.49,12.49,0,0,0-.25-2.48.6.6,0,0,1,1.18-.24A13.44,13.44,0,0,1,285,58c0,.36,0,.71,0,1.06A.61.61,0,0,1,284.4,59.63ZM214.73,59a.62.62,0,0,1-.47-.22.61.61,0,0,1,.07-.85c.93-.78,1.89-1.55,2.86-2.29a.61.61,0,0,1,.74,1c-1,.73-1.9,1.48-2.81,2.25A.62.62,0,0,1,214.73,59Zm96.73-2.28a.71.71,0,0,1-.31-.08c-1-.62-2.08-1.21-3.13-1.75a.6.6,0,0,1-.27-.81.62.62,0,0,1,.82-.27c1.08.56,2.16,1.16,3.21,1.79a.6.6,0,0,1,.2.83A.59.59,0,0,1,311.46,56.67Zm-43.63-.62a.71.71,0,0,1-.31-.08.61.61,0,0,1-.21-.83,12.1,12.1,0,0,1,2.42-2.94.61.61,0,0,1,.86.06.6.6,0,0,1-.06.85,10.93,10.93,0,0,0-2.18,2.64A.58.58,0,0,1,267.83,56.05Zm-47.32-1.5a.59.59,0,0,1-.5-.26.6.6,0,0,1,.16-.84c1-.68,2-1.35,3.07-2a.61.61,0,0,1,.83.2.59.59,0,0,1-.2.83c-1,.63-2,1.29-3,2A.63.63,0,0,1,220.51,54.55ZM305,53.37a.5.5,0,0,1-.23,0c-1.09-.46-2.22-.89-3.35-1.28a.61.61,0,1,1,.39-1.15c1.16.4,2.31.84,3.43,1.32a.6.6,0,0,1,.32.79A.61.61,0,0,1,305,53.37Zm-22-.79a.61.61,0,0,1-.55-.35,15.83,15.83,0,0,0-1.74-2.86l-.52.05a.6.6,0,0,1-.66-.54.61.61,0,0,1,.53-.67c1-.1,2-.17,3.15-.19h.54a.62.62,0,0,1,.61.6.61.61,0,0,1-.6.61h-.53l-1.1,0a17.14,17.14,0,0,1,1.42,2.45.6.6,0,0,1-.29.8A.58.58,0,0,1,283,52.58Zm-9.85-1.3a.6.6,0,0,1-.55-.34.61.61,0,0,1,.28-.81,19.71,19.71,0,0,1,3.52-1.27.61.61,0,0,1,.31,1.17,18,18,0,0,0-3.3,1.19A.65.65,0,0,1,273.17,51.28Zm25-.27a.39.39,0,0,1-.15,0c-1.15-.3-2.33-.58-3.5-.8a.61.61,0,0,1,.23-1.19c1.2.23,2.4.51,3.58.82a.62.62,0,0,1,.43.74A.61.61,0,0,1,298.14,51Zm-71.44-.24a.61.61,0,0,1-.53-.32.61.61,0,0,1,.24-.82c1.06-.58,2.16-1.14,3.26-1.67a.59.59,0,0,1,.8.28.61.61,0,0,1-.28.81c-1.08.52-2.16,1.07-3.2,1.64A.6.6,0,0,1,226.7,50.77ZM291,49.63h-.08c-1.18-.14-2.38-.25-3.57-.32a.61.61,0,0,1,.07-1.21c1.21.07,2.44.18,3.65.33a.61.61,0,0,1-.07,1.21Zm-57.78-2a.61.61,0,0,1-.56-.37.6.6,0,0,1,.32-.79c1.12-.48,2.26-.93,3.41-1.35a.61.61,0,0,1,.41,1.14c-1.12.41-2.25.86-3.35,1.32A.59.59,0,0,1,233.24,47.61Zm45.36-.72a.63.63,0,0,1-.39-.13,7.72,7.72,0,0,0-.72-.56,18.89,18.89,0,0,0-2.2-1.37.6.6,0,0,1,.56-1.07,21.91,21.91,0,0,1,2.34,1.45c.27.2.54.4.79.61a.6.6,0,0,1-.38,1.07Zm-38.55-1.78a.61.61,0,0,1-.57-.43.59.59,0,0,1,.39-.75c1.17-.37,2.35-.71,3.52-1a.6.6,0,0,1,.74.44.59.59,0,0,1-.43.73c-1.16.3-2.32.63-3.47,1A.57.57,0,0,1,240.05,45.11Zm32.19-1.64a.69.69,0,0,1-.2,0,26.42,26.42,0,0,0-3.43-.91.61.61,0,0,1,.24-1.19,28.78,28.78,0,0,1,3.58.95.6.6,0,0,1,.38.77A.61.61,0,0,1,272.24,43.47Zm-25.16-.18a.6.6,0,0,1-.59-.48.59.59,0,0,1,.47-.71c1.2-.25,2.41-.47,3.6-.65a.6.6,0,0,1,.19,1.19c-1.18.18-2.37.4-3.54.64Zm7.18-1.1A.61.61,0,0,1,254.2,41c1.21-.12,2.44-.21,3.65-.27a.61.61,0,0,1,.06,1.21c-1.19.06-2.4.15-3.59.27ZM265.14,42h-.06c-1.13-.1-2.34-.16-3.58-.18a.61.61,0,0,1-.6-.61.6.6,0,0,1,.62-.6c1.27,0,2.51.08,3.67.19a.6.6,0,0,1-.05,1.2Z" fill="#dfdae8"/><path d="M337.06,88.86a.61.61,0,0,1-.57-.38c-.22-.56-.45-1.12-.68-1.67a.61.61,0,0,1,1.12-.47l.69,1.69a.61.61,0,0,1-.34.79A.57.57,0,0,1,337.06,88.86Z" fill="#dfdae8"/><ellipse cx="341.56" cy="100.48" rx="11.35" ry="9.81" transform="translate(98.92 361.03) rotate(-63.43)" fill="#f0eafb"/><path d="M340.38,112a9.11,9.11,0,0,1-4.1-1,9.55,9.55,0,0,1-5-6.37,12.69,12.69,0,0,1,1.05-8.78h0a12.69,12.69,0,0,1,6.39-6.11,9.35,9.35,0,0,1,13,6.52,13.09,13.09,0,0,1-7.44,14.89A10.48,10.48,0,0,1,340.38,112Zm2.35-22.12a9.38,9.38,0,0,0-3.61.75,11.75,11.75,0,0,0-5.93,5.67h0a11.8,11.8,0,0,0-1,8.14,8.44,8.44,0,0,0,11.78,5.9,12.18,12.18,0,0,0,6.91-13.82,8.64,8.64,0,0,0-4.48-5.77A8.14,8.14,0,0,0,342.73,89.88Z" fill="#b08ee6"/><path d="M344.4,96.6l-4.78,5.26-2.27-2.13a.26.26,0,0,0-.36,0l-.51.57a.26.26,0,0,0,0,.36l3.14,2.94a.24.24,0,0,0,.35,0l5.46-6a.27.27,0,0,0-.05-.36l-.66-.62A.25.25,0,0,0,344.4,96.6Z" fill="#b08ee6"/></svg>